<?xml version="1.0" encoding="UTF-8"?>
<svg width="512" height="512" viewBox="0 0 512 512" xmlns="http://www.w3.org/2000/svg">
  <defs>
    <linearGradient id="g" x1="0" x2="1" y1="0" y2="1">
      <stop offset="0" stop-color="#00b050"/>
      <stop offset="1" stop-color="#007f3f"/>
    </linearGradient>
  </defs>
  <rect width="100%" height="100%" rx="64" fill="#000000"/>
  <!-- globe -->
  <g transform="translate(56,56) scale(0.8)">
    <circle cx="200" cy="200" r="160" fill="url(#g)"/>
    <path d="M40 200h320M200 40v320" stroke="#002000" stroke-width="8" fill="none" stroke-linecap="round"/>
    <path d="M80 96c72 80 160 80 232 0" stroke="#002000" stroke-width="6" fill="none"/>
    <path d="M80 304c72-80 160-80 232 0" stroke="#002000" stroke-width="6" fill="none"/>
  </g>
  <!-- chat bubble -->
  <path d="M384 368c0 0-8 40-40 56-22 11-48 8-48 8s6-26-8-48c-16-26-24-56-24-56 44-6 96-28 120-56 22-26 8 96 0 96z" fill="#00e37a" opacity="0.95"/>
</svg>
